<svg width="28" height="28" viewBox="0 0 28 28" fill="none" xmlns="http://www.w3.org/2000/svg">
<path d="M22.9953 8.38251C22.9815 6.85223 22.3644 5.38921 21.2782 4.31119C20.192 3.23318 18.7244 2.62725 17.194 2.62501H8.75028C8.54055 2.62231 8.33683 2.69504 8.17623 2.82995C8.01562 2.96485 7.90883 3.15296 7.87528 3.36001L4.88278 22.1288C4.86409 22.253 4.87238 22.3799 4.90711 22.5007C4.94184 22.6215 5.00218 22.7334 5.08403 22.8288C5.16536 22.9264 5.26697 23.0052 5.38181 23.0596C5.49665 23.114 5.62196 23.1427 5.74903 23.1438H9.36278L9.17028 24.36C9.14984 24.4861 9.15724 24.6151 9.19196 24.738C9.22668 24.8609 9.28788 24.9747 9.37127 25.0714C9.45465 25.1681 9.5582 25.2454 9.67464 25.2979C9.79108 25.3503 9.91759 25.3767 10.0453 25.375H14.114C14.3225 25.378 14.5252 25.3065 14.6856 25.1734C14.846 25.0403 14.9536 24.8542 14.989 24.6488L15.864 19.3025H18.6203C20.3454 19.2956 21.9977 18.606 23.2159 17.3845C24.4341 16.163 25.1192 14.5089 25.1215 12.7838V12.5388C25.1206 11.7273 24.9275 10.9275 24.5579 10.2051C24.1883 9.48266 23.6528 8.85807 22.9953 8.38251V8.38251ZM9.49403 4.37501H17.194C18.112 4.37783 19.002 4.69168 19.7187 5.26535C20.4354 5.83902 20.9365 6.63865 21.1403 7.53376C20.7617 7.44498 20.3741 7.40093 19.9853 7.40251H12.6878C12.4781 7.39981 12.2743 7.47254 12.1137 7.60745C11.9531 7.74235 11.8463 7.93046 11.8128 8.13751L11.2965 11.375C11.2594 11.6071 11.316 11.8444 11.4538 12.0347C11.5917 12.2251 11.7995 12.3529 12.0315 12.39C12.2636 12.4271 12.5009 12.3706 12.6913 12.2327C12.8816 12.0949 13.0094 11.8871 13.0465 11.655L13.449 9.13501H20.0028C20.4222 9.13721 20.8376 9.21732 21.2278 9.37126C21.0614 10.741 20.4006 12.0029 19.3694 12.9197C18.3382 13.8365 17.0076 14.3451 15.6278 14.35H11.5678C11.3593 14.347 11.1566 14.4185 10.9962 14.5516C10.8358 14.6848 10.7282 14.8708 10.6928 15.0763L9.62528 21.3938H6.77278L9.49403 4.37501ZM23.3715 12.7838C23.3692 14.0448 22.8685 15.2538 21.9784 16.1471C21.0884 17.0404 19.8813 17.5456 18.6203 17.5525H15.1203C14.9118 17.5495 14.7091 17.621 14.5487 17.7541C14.3883 17.8873 14.2807 18.0733 14.2453 18.2788L13.3703 23.625H11.0603L11.2528 22.4088L12.3028 16.1175H15.6103C17.2438 16.1127 18.8298 15.5677 20.1213 14.5675C21.4127 13.5672 22.3371 12.1679 22.7503 10.5875C23.1564 11.1569 23.3737 11.8394 23.3715 12.5388V12.7838Z" fill="#396AFF"/>
</svg>
