<svg width="25" height="25" viewBox="0 0 25 25" fill="none" xmlns="http://www.w3.org/2000/svg">
<g clip-path="url(#clip0_98_304)">
<path d="M4.81218 16.6678C5.06357 16.8174 5.27942 17.0121 5.45167 17.2371H8.70683V14.0806L7.16332 13.1236C6.81956 12.9105 6.71366 12.459 6.92677 12.1153C7.13994 11.7716 7.59121 11.6657 7.93513 11.8787L9.43918 12.8112L10.7502 11.9984C8.1353 8.41283 8.73583 3.33221 12.2165 0.464604C6.48306 -1.45611 0.468638 2.8135 0.441492 8.94559C0.427334 12.1976 2.15867 15.0882 4.81218 16.6678V16.6678Z" fill="#232323"/>
<path d="M5.91016 18.7018H12.8431V20.3618H5.91016V18.7018Z" fill="#232323"/>
<path d="M10.1719 14.0806V17.237H13.2912C13.4568 17.0185 13.6634 16.8312 13.9039 16.6896C14.5696 16.2978 15.1806 15.8199 15.7222 15.273C14.1923 14.9285 12.8185 14.1677 11.7259 13.1163C11.6843 13.1434 11.3841 13.3291 10.1719 14.0806Z" fill="#232323"/>
<path d="M17.5794 0.00231934C13.7392 0.00231934 10.5977 3.1757 10.5977 7.03291C10.5977 10.6611 13.3828 13.6654 16.9539 13.9861C21.0867 14.3553 24.5612 11.0793 24.5612 7.03291C24.5612 3.18317 21.4292 0.00231934 17.5794 0.00231934V0.00231934ZM18.3128 10.2072V10.3603C18.3128 10.7647 17.9849 11.0926 17.5804 11.0926C17.1759 11.0926 16.848 10.7647 16.848 10.3603V10.29C16.5106 10.2308 16.2024 10.1046 15.8129 9.84978C15.4744 9.62836 15.3795 9.1745 15.6009 8.83601C15.8224 8.49747 16.2763 8.40265 16.6147 8.62402C16.9717 8.85759 17.0874 8.8758 17.5754 8.87243C18.0466 8.86931 18.2343 8.49947 18.271 8.28147C18.3039 8.08574 18.2669 7.82551 17.904 7.69725C17.2959 7.48228 16.6724 7.23562 16.2307 6.88917C15.2249 6.10028 15.5285 4.29845 16.8481 3.81895V3.71291C16.8481 3.30845 17.176 2.98055 17.5804 2.98055C17.9849 2.98055 18.3128 3.30845 18.3128 3.71291V3.75353C18.6737 3.85537 18.9643 4.03959 19.1639 4.24259C19.4475 4.53095 19.4436 4.99462 19.1553 5.27824C18.867 5.56171 18.4037 5.55795 18.1201 5.27008C18.0792 5.2302 17.8536 5.04208 17.3652 5.18918C17.1702 5.24792 17.1178 5.45015 17.1064 5.51074C17.0825 5.63719 17.1165 5.72243 17.1346 5.73669C17.4109 5.95337 17.9253 6.15125 18.3921 6.31627C20.3223 6.99853 20.0872 9.56572 18.3128 10.2072V10.2072Z" fill="#232323"/>
<path d="M7.08203 22.7052C7.08203 23.9705 8.11143 24.9999 9.37674 24.9999C10.642 24.9999 11.6714 23.9705 11.6714 22.7052V21.8264H7.08203V22.7052Z" fill="#232323"/>
</g>
<defs>
<clipPath id="clip0_98_304">
<rect width="25" height="25" fill="white"/>
</clipPath>
</defs>
</svg>
