<svg width="25" height="33" viewBox="0 0 25 33" fill="none" xmlns="http://www.w3.org/2000/svg">
<path fill-rule="evenodd" clip-rule="evenodd" d="M16.8757 0.916656C17.3876 0.91667 17.8906 1.05144 18.3339 1.30743C18.7773 1.56342 19.1455 1.93161 19.4015 2.37499H21.2507C22.0242 2.37499 22.7661 2.68228 23.313 3.22926C23.86 3.77624 24.1673 4.51811 24.1673 5.29166V22.7917C24.1673 24.7255 23.3991 26.5802 22.0316 27.9476C20.6642 29.3151 18.8095 30.0833 16.8757 30.0833H3.75065C2.9771 30.0833 2.23524 29.776 1.68826 29.229C1.14128 28.6821 0.833984 27.9402 0.833984 27.1667V5.29166C0.833984 4.51811 1.14128 3.77624 1.68826 3.22926C2.23524 2.68228 2.9771 2.37499 3.75065 2.37499H5.59982C5.8558 1.93161 6.22398 1.56342 6.66736 1.30743C7.11073 1.05144 7.61368 0.91667 8.12565 0.916656H16.8757ZM16.619 11.6777L10.4327 17.8654L8.36919 15.8019C8.09415 15.5362 7.72577 15.3892 7.3434 15.3925C6.96103 15.3959 6.59526 15.5492 6.32487 15.8196C6.05449 16.09 5.90112 16.4558 5.89779 16.8382C5.89447 17.2205 6.04146 17.5889 6.30711 17.8639L9.29669 20.855C9.44566 21.004 9.62254 21.1223 9.81721 21.2029C10.0119 21.2836 10.2206 21.3251 10.4313 21.3251C10.642 21.3251 10.8507 21.2836 11.0453 21.2029C11.24 21.1223 11.4169 21.004 11.5659 20.855L18.6825 13.7398C18.8179 13.6043 18.9253 13.4435 18.9986 13.2665C19.0718 13.0895 19.1095 12.8998 19.1094 12.7082C19.1093 12.5167 19.0715 12.327 18.9982 12.1501C18.9248 11.9731 18.8173 11.8124 18.6818 11.677C18.5463 11.5416 18.3855 11.4342 18.2085 11.3609C18.0315 11.2877 17.8418 11.25 17.6502 11.2501C17.4587 11.2502 17.269 11.288 17.0921 11.3613C16.9151 11.4347 16.7544 11.5422 16.619 11.6777ZM16.1465 3.83332H8.85482C8.68416 3.83327 8.51888 3.89307 8.38777 4.00233C8.25667 4.11158 8.16804 4.26336 8.13732 4.43124L8.12565 4.56249V6.02082C8.12559 6.19149 8.1854 6.35676 8.29466 6.48787C8.40391 6.61897 8.55569 6.7076 8.72357 6.73832L8.85482 6.74999H16.1465C16.3171 6.75005 16.4824 6.69024 16.6135 6.58098C16.7446 6.47173 16.8333 6.31995 16.864 6.15207L16.8757 6.02082V4.56249C16.8757 4.39183 16.8159 4.22655 16.7066 4.09545C16.5974 3.96434 16.4456 3.87571 16.2777 3.84499L16.1465 3.83332Z" fill="#232323"/>
</svg>
